<svg width="21" height="21" viewBox="0 0 21 21" fill="none" xmlns="http://www.w3.org/2000/svg">
<path d="M19.866 1.7151e-06H1.134C0.98501 -0.000257627 0.837432 0.0288971 0.699732 0.0857941C0.562032 0.142691 0.436917 0.226211 0.331564 0.331564C0.226211 0.436917 0.142691 0.562031 0.0857941 0.699732C0.0288971 0.837432 -0.000257627 0.985009 1.7151e-06 1.134V19.866C-0.000257627 20.015 0.0288971 20.1626 0.0857941 20.3003C0.142691 20.438 0.226211 20.5631 0.331564 20.6684C0.436917 20.7738 0.562032 20.8573 0.699732 20.9142C0.837432 20.9711 0.98501 21.0003 1.134 21H11.2133V12.8625H8.46956V9.69478H11.2133V7.28044C11.2133 4.74928 12.7824 3.17625 15.2545 3.17625C16.0857 3.17165 16.9165 3.21042 17.7437 3.29241V6.14644H16.0676C15.0052 6.14644 14.5057 6.51984 14.5057 7.64662V9.69478H17.6341L17.2318 12.8625H14.5031V21H19.8634C20.0126 21.0006 20.1604 20.9717 20.2984 20.915C20.4364 20.8582 20.5619 20.7747 20.6675 20.6694C20.7731 20.564 20.8569 20.4387 20.914 20.3009C20.971 20.163 21.0003 20.0152 21 19.866V1.134C21.0003 0.985009 20.9711 0.837432 20.9142 0.699732C20.8573 0.562031 20.7738 0.436917 20.6684 0.331564C20.5631 0.226211 20.438 0.142691 20.3003 0.0857941C20.1626 0.0288971 20.015 -0.000257627 19.866 1.7151e-06Z" fill="#8E8D94"/>
</svg>
