<svg width="21" height="21" viewBox="0 0 21 21" fill="none" xmlns="http://www.w3.org/2000/svg">
<path d="M16.1046 6.14858C16.8004 6.14858 17.3644 5.58453 17.3644 4.88874C17.3644 4.19295 16.8004 3.62891 16.1046 3.62891C15.4088 3.62891 14.8447 4.19295 14.8447 4.88874C14.8447 5.58453 15.4088 6.14858 16.1046 6.14858Z" fill="#8E8D94"/>
<path d="M20.9388 6.16795C20.9201 5.29698 20.7555 4.43532 20.4519 3.61875C20.1826 2.92238 19.7711 2.28981 19.2436 1.76141C18.7161 1.23301 18.0842 0.820381 17.3883 0.549866C16.5711 0.244884 15.7079 0.0811322 14.8358 0.0656165C13.7138 0.0124671 13.3575 0 10.5091 0C7.66065 0 7.30041 0.0124671 6.18297 0.0656165C5.31194 0.083532 4.45006 0.247213 3.63311 0.549866C2.9313 0.811659 2.29575 1.22476 1.77157 1.75983C1.23883 2.28362 0.826409 2.91703 0.562913 3.61613C0.258576 4.43341 0.0937702 5.29603 0.0753821 6.16795C0.0248574 7.28934 0.00976562 7.64629 0.00976562 10.4947C0.00976562 13.3431 0.0222328 13.7033 0.0753821 14.8208C0.0942098 15.6914 0.259009 16.5526 0.562913 17.3687C0.832447 18.0649 1.24433 18.6971 1.77221 19.225C2.30009 19.7529 2.93234 20.1648 3.62852 20.4343C4.4447 20.74 5.30696 20.9047 6.17837 20.9212C7.29976 20.9717 7.65671 20.9868 10.5045 20.9868C13.3522 20.9868 13.7138 20.9743 14.8312 20.9212C15.7022 20.9025 16.5639 20.7379 17.3804 20.4343C18.0767 20.1645 18.7091 19.7525 19.2372 19.2245C19.7653 18.6966 20.1774 18.0643 20.4473 17.368C20.7528 16.5518 20.9174 15.6896 20.9342 14.8182C20.9847 13.6968 20.9998 13.3398 20.9998 10.4921C20.9998 7.64432 20.9893 7.28343 20.9388 6.16795ZM19.053 14.7348C19.0455 15.4004 18.9232 16.0597 18.6914 16.6837C18.5226 17.1405 18.2535 17.5537 17.904 17.893C17.5632 18.2405 17.1505 18.5093 16.6947 18.6804C16.0705 18.9111 15.4114 19.0334 14.7459 19.0419C13.6409 19.0918 13.3096 19.1075 10.5032 19.1075C7.69674 19.1075 7.36537 19.0944 6.26105 19.0419C5.59548 19.0345 4.93619 18.9122 4.31224 18.6804C3.85551 18.5113 3.44234 18.2422 3.10293 17.893C2.75529 17.5522 2.48652 17.1394 2.31553 16.6837C2.08453 16.0595 1.96224 15.4003 1.95398 14.7348C1.90346 13.6299 1.88837 13.2985 1.88837 10.4927C1.88837 7.68697 1.90083 7.35495 1.95398 6.24997C1.96157 5.58441 2.08388 4.92515 2.31553 4.30116C2.48424 3.84423 2.75331 3.43098 3.10293 3.09185C3.44378 2.74433 3.85653 2.47558 4.31224 2.30445C4.93654 2.074 5.59563 1.95194 6.26105 1.94356C7.36603 1.89304 7.69739 1.87794 10.5038 1.87794C13.3102 1.87794 13.6416 1.89041 14.7459 1.94356C15.4116 1.95099 16.0711 2.07307 16.6954 2.30445C17.1521 2.47362 17.5652 2.74263 17.9047 3.09185C18.252 3.43289 18.5207 3.84559 18.6921 4.30116C18.9229 4.92537 19.0449 5.58452 19.053 6.24997C19.1035 7.35495 19.1186 7.68632 19.1186 10.4927C19.1186 13.2992 19.0996 13.6299 19.053 14.7348Z" fill="#8E8D94"/>
<path d="M10.4988 5.09863C9.43203 5.0985 8.38915 5.41473 7.50208 6.00731C6.61501 6.5999 5.92359 7.44223 5.51525 8.42778C5.10692 9.41334 5.00001 10.4978 5.20805 11.5442C5.41609 12.5905 5.92974 13.5516 6.68403 14.306C7.43833 15.0604 8.39939 15.5741 9.44567 15.7823C10.492 15.9905 11.5765 15.8837 12.5621 15.4755C13.5477 15.0673 14.3901 14.3759 14.9828 13.4889C15.5755 12.6019 15.8918 11.5591 15.8918 10.4923C15.8918 9.06193 15.3237 7.69013 14.3123 6.67864C13.3009 5.66714 11.9292 5.09881 10.4988 5.09863ZM10.4988 13.991C9.80667 13.9911 9.13002 13.786 8.55446 13.4015C7.9789 13.017 7.53028 12.4705 7.26534 11.8311C7.0004 11.1916 6.93105 10.488 7.06605 9.80913C7.20105 9.13026 7.53434 8.50668 8.02377 8.01725C8.5132 7.52782 9.13678 7.19453 9.81565 7.05953C10.4945 6.92453 11.1982 6.99388 11.8376 7.25882C12.4771 7.52376 13.0236 7.97238 13.408 8.54794C13.7925 9.1235 13.9976 9.80015 13.9975 10.4923C13.9973 11.4202 13.6287 12.31 12.9726 12.966C12.3165 13.6221 11.4267 13.9908 10.4988 13.991Z" fill="#8E8D94"/>
<path d="M0 10.4927C0 13.3444 0.0124671 13.7014 0.0656165 14.8188C0.083532 15.6899 0.247213 16.5517 0.549866 17.3687C0.812963 18.0685 1.22593 18.7023 1.75983 19.2256C2.28298 19.7593 2.91656 20.1721 3.61612 20.4349C4.43207 20.7407 5.29412 20.9054 6.16533 20.9218C7.28671 20.9723 7.64366 20.9874 10.4921 20.9874C13.3405 20.9874 13.7007 20.975 14.8182 20.9218C15.6893 20.9031 16.5512 20.7385 17.368 20.4349C18.0643 20.1653 18.6966 19.7534 19.2247 19.2255C19.7528 18.6977 20.165 18.0655 20.4349 17.3693C20.741 16.5532 20.9057 15.6909 20.9218 14.8195C20.9723 13.6981 20.9874 13.3411 20.9874 10.4934C20.9874 7.64563 20.975 7.28409 20.9218 6.16664C20.9035 5.29563 20.7389 4.4339 20.4349 3.61744C20.1724 2.91751 19.7596 2.28365 19.2256 1.76049C18.7058 1.22445 18.073 0.811094 17.3733 0.550522C16.5569 0.245756 15.6947 0.0817913 14.8234 0.0656165C13.702 0.0131233 13.3451 0 10.4986 0C7.65219 0 7.28737 0.0124671 6.16795 0.0656165C5.29781 0.0838241 4.43684 0.247501 3.62072 0.549866C2.92079 0.812715 2.28695 1.22572 1.76377 1.75983C1.2308 2.28356 0.818148 2.91697 0.554459 3.61612C0.247575 4.43274 0.0822557 5.29573 0.0656165 6.16795C0.0124671 7.28343 0 7.64038 0 10.4927ZM1.89435 10.4927C1.89435 7.69091 1.90682 7.35495 1.95996 6.24997C1.96756 5.58441 2.08986 4.92515 2.32151 4.30116C2.49022 3.84423 2.75929 3.43098 3.10891 3.09185C3.44976 2.74433 3.86252 2.47558 4.31822 2.30445C4.94252 2.074 5.60161 1.95194 6.26703 1.94356C7.37201 1.89304 7.70338 1.87794 10.5098 1.87794C13.3162 1.87794 13.6476 1.89041 14.7519 1.94356C15.4174 1.95096 16.0767 2.07304 16.7007 2.30445C17.1577 2.47343 17.5711 2.74246 17.9107 3.09185C18.258 3.43289 18.5267 3.84559 18.6981 4.30116C18.9285 4.92546 19.0506 5.58455 19.059 6.24997C19.1095 7.35495 19.1246 7.68632 19.1246 10.4927C19.1246 13.2991 19.1121 13.6299 19.059 14.7348C19.0516 15.4004 18.9295 16.0596 18.6981 16.6836C18.5286 17.1402 18.2596 17.5533 17.9107 17.893C17.5694 18.2403 17.1565 18.509 16.7007 18.6804C16.0765 18.9112 15.4174 19.0335 14.7519 19.0419C13.6476 19.0918 13.3156 19.1075 10.5098 19.1075C7.70403 19.1075 7.37201 19.0944 6.26703 19.0419C5.60168 19.0344 4.94261 18.9121 4.31888 18.6804C3.86188 18.5114 3.44846 18.2424 3.10891 17.893C2.76162 17.5519 2.49291 17.1392 2.32151 16.6836C2.09114 16.0593 1.96909 15.4003 1.96062 14.7348C1.90288 13.6299 1.89435 13.2939 1.89435 10.4927Z" fill="#8E8D94"/>
</svg>
