<svg xmlns="http://www.w3.org/2000/svg" viewBox="0 0 250 197.531"><defs><style>.a{fill:#fff;}.b{fill:#f3494a;}.c{fill:#ff784e;}.d{fill:#ffc03f;}.e{fill:#59bf42;}.f{fill:#33cbcc;}.g{fill:#297ccc;}.h{fill:#8642a7;}</style></defs><polygon class="a" points="125 66.219 0 0 0 132.438 125 197.531 139.984 189.719 14.844 124.562 14.844 23.063 110.656 73.812 125 66.219"/><polygon class="b" points="250 0 14.844 124.562 33.766 134.406 250 19.859 250 0"/><polygon class="c" points="250 19.859 33.766 134.406 51.312 143.562 250 40.078 250 19.859"/><polygon class="d" points="250 40.078 51.312 143.562 69.516 153.031 250 59.031 250 40.078"/><polygon class="e" points="250 59.031 69.516 153.031 87.031 162.156 250 77.281 250 59.031"/><polygon class="f" points="250 77.281 87.031 162.156 104.672 171.328 250 95.656 250 77.281"/><polygon class="g" points="250 95.656 104.672 171.328 122.438 180.594 250 114.141 250 95.656"/><polygon class="h" points="250 114.141 122.438 180.594 139.984 189.719 250 132.422 250 114.141"/></svg>