<svg width="10" height="16" viewBox="0 0 10 16" fill="none" xmlns="http://www.w3.org/2000/svg">
<path d="M7.91992 0.785645H2.29492C2.04869 0.785621 1.80486 0.834103 1.57736 0.928322C1.34987 1.02254 1.14316 1.16065 0.969044 1.33477C0.794929 1.50888 0.656819 1.71559 0.5626 1.94309C0.46838 2.17058 0.419898 2.41441 0.419922 2.66064V13.9106C0.419898 14.1569 0.46838 14.4007 0.5626 14.6282C0.656819 14.8557 0.794929 15.0624 0.969044 15.2365C1.14316 15.4106 1.34987 15.5487 1.57736 15.643C1.80486 15.7372 2.04869 15.7857 2.29492 15.7856H7.91992C8.16616 15.7857 8.40998 15.7372 8.63748 15.643C8.86498 15.5487 9.07168 15.4106 9.2458 15.2365C9.41991 15.0624 9.55802 14.8557 9.65224 14.6282C9.74646 14.4007 9.79495 14.1569 9.79492 13.9106V2.66064C9.79471 2.16343 9.5971 1.68663 9.24552 1.33505C8.89393 0.983462 8.41714 0.785851 7.91992 0.785645ZM8.85742 13.9106C8.85709 14.1592 8.75821 14.3974 8.58247 14.5732C8.40672 14.7489 8.16846 14.8478 7.91992 14.8481H2.29492C2.04638 14.8478 1.80812 14.7489 1.63238 14.5732C1.45663 14.3974 1.35776 14.1592 1.35742 13.9106V2.66064C1.35776 2.41211 1.45663 2.17384 1.63238 1.9981C1.80812 1.82236 2.04638 1.72348 2.29492 1.72314H7.91992C8.16846 1.72348 8.40672 1.82236 8.58247 1.9981C8.75821 2.17384 8.85709 2.41211 8.85742 2.66064V13.9106ZM6.04492 12.5044H4.16992C4.04559 12.5044 3.92636 12.5538 3.83844 12.6417C3.75053 12.7296 3.70114 12.8488 3.70114 12.9731C3.70114 13.0975 3.75053 13.2167 3.83844 13.3046C3.92636 13.3925 4.04559 13.4419 4.16992 13.4419H6.04492C6.16925 13.4419 6.28849 13.3925 6.3764 13.3046C6.46431 13.2167 6.5137 13.0975 6.5137 12.9731C6.5137 12.8488 6.46431 12.7296 6.3764 12.6417C6.28849 12.5538 6.16925 12.5044 6.04492 12.5044V12.5044Z" fill="#8C8C8E"/>
</svg>
