<svg width="16" height="16" viewBox="0 0 16 16" fill="none" xmlns="http://www.w3.org/2000/svg">
<path d="M2.75561 5.28982C2.75561 5.01212 2.83796 4.74065 2.99225 4.50975C3.14653 4.27885 3.36582 4.09888 3.62238 3.99261C3.87895 3.88634 4.16126 3.85853 4.43363 3.91271C4.706 3.96688 4.95618 4.10061 5.15255 4.29698C5.34892 4.49334 5.48264 4.74353 5.53682 5.0159C5.591 5.28826 5.56319 5.57058 5.45692 5.82714C5.35065 6.08371 5.17068 6.303 4.93978 6.45728C4.70888 6.61156 4.43741 6.69391 4.15971 6.69391C3.97518 6.69442 3.79237 6.65845 3.62178 6.58807C3.4512 6.51768 3.29621 6.41428 3.16573 6.28379C3.03525 6.15331 2.93184 5.99832 2.86146 5.82774C2.79108 5.65716 2.75511 5.47435 2.75561 5.28982ZM6.43959 1.99513H4.257C3.55784 1.99954 2.88858 2.27923 2.39419 2.77362C1.89981 3.268 1.62011 3.93727 1.6157 4.63642V11.9488C1.62011 12.6479 1.89981 13.3172 2.39419 13.8116C2.88858 14.3059 3.55784 14.5856 4.257 14.59H6.43959V1.99513ZM7.53782 15.7856H4.257C3.7513 15.7857 3.25054 15.6861 2.78333 15.4926C2.31612 15.2991 1.8916 15.0154 1.53402 14.6578C1.17643 14.3002 0.892793 13.8757 0.699289 13.4085C0.505786 12.9413 0.406211 12.4405 0.40625 11.9348L0.40625 4.63642C0.406218 4.13072 0.505799 3.62997 0.699306 3.16276C0.892813 2.69556 1.17646 2.27104 1.53404 1.91346C1.89162 1.55588 2.31613 1.27224 2.78334 1.07873C3.25055 0.885222 3.7513 0.785641 4.257 0.785673H7.53782C7.56665 0.787666 7.59378 0.800027 7.6142 0.820472C7.63463 0.840917 7.64696 0.868064 7.64892 0.896895V0.896895V15.6744C7.64913 15.6891 7.6464 15.7036 7.64088 15.7172C7.63537 15.7308 7.62718 15.7431 7.61681 15.7535C7.60644 15.7639 7.5941 15.7721 7.58051 15.7776C7.56692 15.7831 7.55236 15.7858 7.5377 15.7856H7.53782ZM12.1254 7.52802C11.8257 7.52801 11.5327 7.61687 11.2835 7.78337C11.0343 7.94987 10.8401 8.18653 10.7254 8.46342C10.6107 8.74031 10.5807 9.045 10.6391 9.33895C10.6976 9.63289 10.8419 9.9029 11.0538 10.1148C11.2658 10.3268 11.5358 10.4711 11.8297 10.5295C12.1237 10.588 12.4283 10.558 12.7052 10.4433C12.9821 10.3286 13.2188 10.1344 13.3853 9.88516C13.5518 9.63596 13.6406 9.34298 13.6406 9.04328C13.6397 8.6417 13.4797 8.25684 13.1958 7.97288C12.9118 7.68892 12.527 7.52897 12.1254 7.52802V7.52802ZM11.5693 15.7856H9.26164C9.23279 15.7837 9.20563 15.7713 9.18518 15.7509C9.16474 15.7304 9.15239 15.7033 9.15042 15.6744V15.6744V0.882962C9.15011 0.870101 9.15241 0.857309 9.15719 0.845364C9.16197 0.833419 9.16912 0.822569 9.17822 0.813472C9.18732 0.804374 9.19817 0.797219 9.21011 0.792441C9.22206 0.787662 9.23485 0.78536 9.24771 0.785673H11.5693C12.075 0.785641 12.5758 0.885222 13.043 1.07873C13.5102 1.27224 13.9347 1.55588 14.2923 1.91346C14.6499 2.27104 14.9335 2.69556 15.127 3.16276C15.3205 3.62997 15.4201 4.13072 15.4201 4.63642V11.9488C15.4198 12.4537 15.32 12.9537 15.1262 13.42C14.9324 13.8863 14.6486 14.3098 14.2909 14.6662C13.9331 15.0226 13.5086 15.305 13.0416 15.4971C12.5746 15.6892 12.0743 15.7872 11.5693 15.7856V15.7856Z" fill="#8C8C8E"/>
</svg>
