<svg width="21" height="16" viewBox="0 0 21 16" fill="none" xmlns="http://www.w3.org/2000/svg">
<path d="M8.23047 0.785645V14.7741L11.384 15.7856V4.04204C11.384 3.49359 11.6414 3.13374 12.0352 3.25367C12.4291 3.37359 12.6522 3.90493 12.6522 4.45338V9.13426C14.6239 10.094 16.0799 9.13426 16.0799 6.61444C16.0799 4.09462 15.2573 2.89467 12.5837 1.98699C11.1568 1.50361 9.70332 1.1025 8.23047 0.785645" fill="#8C8C8E"/>
<path d="M11.9844 13.7283L17.1259 12.0144C17.7086 11.7916 17.7947 11.5002 17.3316 11.346C16.7003 11.1997 16.0404 11.2354 15.4285 11.4488L12.0008 12.6485V10.6604H12.2064C12.9704 10.4153 13.7574 10.2488 14.5551 10.1634C16.0376 10.0078 17.5362 10.1834 18.9426 10.6776C20.4508 11.1575 20.6564 11.8431 20.2283 12.3914C19.8582 12.7559 19.414 13.0365 18.9258 13.2141L12.0704 15.6999" fill="#8C8C8E"/>
<path d="M2.41849 13.5398C0.961348 13.1114 0.636027 12.2198 1.33839 11.6889C1.8687 11.3364 2.44554 11.0595 3.05225 10.8663L7.59532 9.1524V11.0719L4.3897 12.254C3.80703 12.4597 3.72133 12.7518 4.18407 12.9053C4.82226 13.049 5.48823 13.0074 6.10357 12.7854L7.68032 12.2194V13.9333H7.35438C5.7018 14.2122 4.00585 14.0767 2.41849 13.5391" fill="#8C8C8E"/>
</svg>
