<svg width="21" height="19" viewBox="0 0 21 19" fill="none" xmlns="http://www.w3.org/2000/svg">
<path d="M21 9.52126C20.9987 9.0706 20.8652 8.63024 20.616 8.25473C20.3668 7.87922 20.0129 7.58507 19.5982 7.40872C19.1835 7.23238 18.7261 7.1816 18.2828 7.26266C17.8395 7.34373 17.4297 7.55308 17.1042 7.86478C15.2834 6.63496 13.1469 5.95554 10.9502 5.90772L12.0042 0.977011L15.4294 1.70943C15.4433 2.11233 15.604 2.49626 15.8812 2.78895C16.1584 3.08163 16.5331 3.26289 16.9346 3.29859C17.3362 3.33429 17.7369 3.22197 18.0614 2.98278C18.386 2.74359 18.6118 2.39403 18.6966 1.9999C18.7813 1.60577 18.7191 1.19425 18.5215 0.842825C18.324 0.491396 18.0048 0.224294 17.6241 0.0917997C17.2433 -0.0406944 16.8273 -0.029441 16.4543 0.123441C16.0812 0.276324 15.777 0.56029 15.5987 0.921883L11.7791 0.11202C11.7277 0.101 11.6745 0.100315 11.6228 0.110004C11.5711 0.119693 11.5218 0.139564 11.4779 0.168461C11.4321 0.19706 11.3931 0.235418 11.3639 0.280796C11.3346 0.326175 11.3157 0.377455 11.3085 0.430977L10.1417 5.9261C7.91246 5.95342 5.7402 6.63385 3.89377 7.88316C3.65292 7.65025 3.36403 7.47286 3.04736 7.36341C2.73069 7.25397 2.39392 7.21512 2.06065 7.2496C1.72738 7.28407 1.40569 7.39104 1.11813 7.563C0.830576 7.73495 0.584119 7.96773 0.396043 8.24501C0.207967 8.52229 0.0828258 8.83736 0.0293957 9.16811C-0.0240344 9.49887 -0.00446006 9.83732 0.086746 10.1597C0.177952 10.4821 0.338582 10.7806 0.55737 11.0344C0.776159 11.2881 1.04781 11.491 1.35327 11.6286C1.31512 11.8585 1.29624 12.0912 1.29683 12.3243C1.29683 15.863 5.41834 18.7421 10.4993 18.7421C15.5803 18.7421 19.7018 15.8794 19.7018 12.3243C19.702 12.0913 19.6833 11.8586 19.6461 11.6286C20.0498 11.4438 20.392 11.147 20.632 10.7734C20.872 10.3999 20.9997 9.96527 21 9.52126ZM5.22932 11.1581C5.22932 10.8335 5.32555 10.5163 5.50584 10.2465C5.68612 9.9767 5.94237 9.7664 6.24217 9.64222C6.54198 9.51803 6.87187 9.48554 7.19014 9.54885C7.50841 9.61216 7.80076 9.76842 8.03022 9.99788C8.25968 10.2273 8.41595 10.5197 8.47925 10.838C8.54256 11.1562 8.51007 11.4861 8.38589 11.7859C8.2617 12.0857 8.05141 12.342 7.78159 12.5223C7.51178 12.7026 7.19456 12.7988 6.87005 12.7988C6.65447 12.7992 6.44092 12.7571 6.24166 12.6748C6.0424 12.5925 5.86136 12.4716 5.70892 12.3192C5.55648 12.1667 5.43564 11.9857 5.35334 11.7864C5.27104 11.5872 5.22889 11.3736 5.22932 11.1581ZM14.3944 15.5053C13.2649 16.6348 11.1195 16.7103 10.4987 16.7103C9.8588 16.7103 7.7147 16.6164 6.60294 15.5053C6.52661 15.4247 6.48475 15.3175 6.48629 15.2065C6.48783 15.0955 6.53263 14.9895 6.61117 14.9111C6.6897 14.8326 6.79576 14.7879 6.90675 14.7865C7.01775 14.7851 7.12491 14.8271 7.20542 14.9035C7.92012 15.6169 9.42565 15.863 10.4993 15.863C11.573 15.863 13.0963 15.6182 13.7926 14.9035C13.8311 14.8639 13.877 14.8323 13.9278 14.8104C13.9785 14.7886 14.033 14.777 14.0883 14.7762C14.1435 14.7755 14.1983 14.7857 14.2496 14.8062C14.3009 14.8266 14.3477 14.857 14.3872 14.8956L14.3951 14.9035C14.4674 14.9871 14.5071 15.094 14.507 15.2045C14.5069 15.3151 14.4669 15.4219 14.3944 15.5053ZM14.0932 12.8145C13.7685 12.8153 13.4509 12.7197 13.1806 12.5399C12.9102 12.3601 12.6993 12.1041 12.5745 11.8044C12.4498 11.5047 12.4167 11.1747 12.4796 10.8561C12.5424 10.5376 12.6984 10.2449 12.9277 10.015C13.157 9.78518 13.4493 9.62852 13.7677 9.56489C14.0861 9.50127 14.4162 9.53353 14.7162 9.65759C15.0163 9.78166 15.2727 9.99195 15.4532 10.2619C15.6336 10.5318 15.73 10.8491 15.73 11.1738C15.73 11.6083 15.5577 12.025 15.2508 12.3326C14.944 12.6402 14.5277 12.8135 14.0932 12.8145Z" fill="#8E8D94"/>
</svg>
