<svg width="21" height="21" viewBox="0 0 21 21" fill="none" xmlns="http://www.w3.org/2000/svg">
<path d="M10.5 0C8.4233 0 6.39323 0.615814 4.66651 1.76957C2.9398 2.92332 1.59399 4.5632 0.799269 6.48182C0.00454945 8.40044 -0.203385 10.5116 0.201759 12.5484C0.606904 14.5852 1.60693 16.4562 3.07538 17.9246C4.54383 19.3931 6.41475 20.3931 8.45155 20.7982C10.4884 21.2034 12.5995 20.9954 14.5182 20.2007C16.4368 19.406 18.0767 18.0602 19.2304 16.3335C20.3842 14.6068 21 12.5767 21 10.5C21 7.71522 19.8937 5.04451 17.9246 3.07538C15.9555 1.10625 13.2848 0 10.5 0V0ZM15.3156 15.1443C15.2246 15.2921 15.0788 15.3979 14.9101 15.4385C14.7413 15.479 14.5634 15.4511 14.4152 15.3608C11.9497 13.8554 8.84625 13.5141 5.1916 14.3489C5.02751 14.3744 4.85988 14.3367 4.72248 14.2434C4.58508 14.1502 4.48813 14.0083 4.45117 13.8465C4.41422 13.6846 4.44001 13.5147 4.52334 13.3711C4.60667 13.2275 4.74134 13.1208 4.90022 13.0725C8.90334 12.1583 12.3309 12.5521 15.0983 14.2439C15.2463 14.3347 15.3522 14.4805 15.3929 14.6492C15.4336 14.818 15.4058 14.996 15.3156 15.1443ZM16.6031 12.285C16.5469 12.3766 16.4733 12.4563 16.3863 12.5194C16.2993 12.5825 16.2008 12.6279 16.0962 12.653C15.9917 12.678 15.8833 12.6822 15.7772 12.6654C15.671 12.6485 15.5693 12.6109 15.4777 12.5547C12.2889 10.7765 8.5248 10.3363 5.01178 11.3308C4.90893 11.362 4.80093 11.3727 4.69394 11.3622C4.58696 11.3517 4.4831 11.3203 4.38828 11.2696C4.29346 11.219 4.20954 11.1502 4.14132 11.0671C4.07309 10.984 4.0219 10.8883 3.99066 10.7855C3.95942 10.6826 3.94874 10.5746 3.95924 10.4676C3.96974 10.3606 4.00121 10.2568 4.05185 10.162C4.10249 10.0671 4.17131 9.98322 4.25438 9.915C4.33745 9.84677 4.43315 9.79558 4.536 9.76434C6.49599 9.19997 8.54894 9.03267 10.5744 9.27225C12.5999 9.51183 14.5572 10.1535 16.3314 11.1595C16.5163 11.2731 16.6486 11.4555 16.699 11.6665C16.7495 11.8776 16.714 12.1001 16.6005 12.285H16.6031ZM16.7134 9.30759C13.3271 7.2975 7.74375 7.11243 4.51238 8.09353C4.26933 8.1494 4.01414 8.11094 3.79836 7.98591C3.58258 7.86089 3.42229 7.65863 3.34988 7.41999C3.27747 7.18135 3.29834 6.92412 3.40826 6.70027C3.51819 6.47642 3.70898 6.30263 3.9421 6.21403C7.65122 5.0879 13.8173 5.30512 17.7135 7.6184C17.9186 7.76009 18.0624 7.97435 18.1157 8.21791C18.169 8.46147 18.1279 8.71618 18.0007 8.9306C17.8735 9.14503 17.6696 9.3032 17.4303 9.37318C17.191 9.44315 16.9341 9.41971 16.7114 9.30759H16.7134Z" fill="#8E8D94"/>
</svg>
