<svg width="15" height="16" viewBox="0 0 15 16" fill="none" xmlns="http://www.w3.org/2000/svg">
<path d="M7.48328 0.785645C5.58055 0.785758 3.74899 1.50902 2.35955 2.80894C0.970104 4.10887 0.126644 5.88828 0 7.78678L0.00323625 7.79224V7.79152L4.03284 9.45039C4.39704 9.21116 4.82705 9.09207 5.26243 9.10987L7.09757 6.44404C7.09691 6.43205 7.09691 6.41959 7.09691 6.407C7.09802 5.84386 7.26603 5.29369 7.5797 4.826C7.89338 4.3583 8.33865 3.99408 8.85924 3.77935C9.37984 3.56462 9.9524 3.50902 10.5046 3.61957C11.0568 3.73012 11.5638 4.00186 11.9616 4.40046C12.3594 4.79906 12.6301 5.30662 12.7396 5.85903C12.849 6.41143 12.7923 6.98388 12.5765 7.50405C12.3607 8.02421 11.9956 8.46875 11.5273 8.78149C11.059 9.09423 10.5085 9.26114 9.94534 9.26113C9.92413 9.26113 9.90225 9.26047 9.88098 9.25981L7.25524 11.1363C7.27003 11.6535 7.09142 12.1576 6.75431 12.5502C6.4172 12.9427 5.94582 13.1954 5.43232 13.2589C4.91881 13.3224 4.40008 13.1921 3.97752 12.8935C3.55496 12.5949 3.25893 12.1494 3.14731 11.6442L0.308522 10.4726C0.713528 11.8012 1.47952 12.9912 2.52112 13.91C3.56273 14.8289 4.83903 15.4404 6.20778 15.6765C7.57652 15.9126 8.98394 15.764 10.2732 15.2472C11.5624 14.7304 12.6828 13.8657 13.5095 12.7496C14.3362 11.6334 14.8367 10.3096 14.9552 8.92572C15.0738 7.54183 14.8057 6.15221 14.1809 4.91173C13.556 3.67125 12.599 2.62865 11.4164 1.90012C10.2339 1.1716 8.87224 0.785771 7.48328 0.785645V0.785645Z" fill="#8C8C8E"/>
<path d="M4.65973 12.2709L3.73242 11.8866C3.86757 12.1673 4.08148 12.4026 4.34807 12.5638C4.61466 12.725 4.9224 12.8052 5.23375 12.7944C5.5451 12.7837 5.8466 12.6826 6.10148 12.5035C6.35635 12.3243 6.55358 12.0749 6.66911 11.7856C6.78463 11.4962 6.81346 11.1795 6.75207 10.8741C6.69068 10.5687 6.54173 10.2877 6.32338 10.0655C6.10504 9.84329 5.82675 9.68942 5.52245 9.62267C5.21815 9.55591 4.901 9.57916 4.60968 9.68958L5.56827 10.0869C5.85619 10.2085 6.08424 10.4392 6.20262 10.7284C6.32099 11.0177 6.32005 11.3421 6.2 11.6307C6.07996 11.9193 5.85057 12.1486 5.56195 12.2686C5.27334 12.3885 4.94897 12.3894 4.65973 12.271V12.2709Z" fill="#8C8C8E"/>
<path d="M11.8429 6.40679C11.8422 6.03156 11.7303 5.66495 11.5214 5.35329C11.3124 5.04162 11.0158 4.79888 10.6689 4.65574C10.3221 4.5126 9.94057 4.47548 9.57263 4.54907C9.20469 4.62266 8.86682 4.80366 8.60171 5.0692C8.33659 5.33474 8.15614 5.6729 8.08314 6.04096C8.01014 6.40902 8.04788 6.79045 8.19158 7.13708C8.33528 7.4837 8.57849 7.77995 8.89049 7.98839C9.2025 8.19684 9.56928 8.30813 9.94451 8.3082C10.4482 8.30722 10.931 8.10648 11.2868 7.75002C11.6427 7.39356 11.8427 6.91049 11.8429 6.40679V6.40679ZM8.52272 6.40385C8.5232 6.12197 8.60722 5.84656 8.76419 5.61243C8.92115 5.3783 9.144 5.19595 9.40457 5.08844C9.66514 4.98093 9.95174 4.95309 10.2281 5.00842C10.5045 5.06376 10.7583 5.19979 10.9574 5.39932C11.1565 5.59886 11.292 5.85294 11.3467 6.12946C11.4015 6.40597 11.373 6.69251 11.2649 6.95284C11.1568 7.21318 10.974 7.43563 10.7395 7.59208C10.505 7.74853 10.2294 7.83196 9.94757 7.83182C9.5693 7.83123 9.20673 7.6805 8.93953 7.41275C8.67233 7.145 8.52235 6.78212 8.52254 6.40385H8.52272Z" fill="#8C8C8E"/>
</svg>
