<svg width="21" height="18" viewBox="0 0 21 18" fill="none" xmlns="http://www.w3.org/2000/svg">
<path d="M6.6045 17.0568C14.5294 17.0568 18.8632 10.4943 18.8632 4.80523C18.8632 4.61886 18.8587 4.43314 18.8508 4.24808C19.694 3.63861 20.4218 2.88371 21 2.0188C20.2138 2.36717 19.3799 2.59568 18.5259 2.6967C19.425 2.15848 20.0982 1.31225 20.4205 0.315173C19.5746 0.816623 18.6494 1.17016 17.6846 1.36058C17.0356 0.669141 16.1767 0.211005 15.2409 0.0571325C14.3052 -0.0967404 13.3448 0.062237 12.5086 0.50944C11.6723 0.956644 11.0068 1.66712 10.6152 2.53081C10.2237 3.39451 10.1278 4.36323 10.3425 5.28692C8.62951 5.20166 6.9536 4.75709 5.42358 3.98207C3.89357 3.20706 2.54365 2.11893 1.46147 0.788329C0.91071 1.73633 0.742097 2.85865 0.989982 3.92664C1.23787 4.99463 1.8836 5.92794 2.79562 6.53642C2.11131 6.51565 1.44199 6.33088 0.843937 5.99764C0.843937 6.01601 0.843937 6.03373 0.843937 6.05277C0.844329 7.04718 1.18876 8.01083 1.81878 8.7802C2.44879 9.54957 3.3256 10.0773 4.30041 10.2738C3.66599 10.4468 3.00037 10.4722 2.35462 10.3479C2.63025 11.2035 3.16622 11.9516 3.88768 12.4877C4.60914 13.0239 5.48005 13.3213 6.37875 13.3384C4.85228 14.5357 2.96764 15.1849 1.02769 15.1819C0.684254 15.182 0.341108 15.162 0 15.1221C1.97021 16.3874 4.263 17.0588 6.6045 17.0561" fill="#8E8D94"/>
</svg>
