<svg width="20" height="12" viewBox="0 0 20 12" fill="none" xmlns="http://www.w3.org/2000/svg">
<path d="M13.9794 11.9537H6.29854C4.734 11.9387 3.23865 11.3066 2.13763 10.195C1.03661 9.08334 0.418945 7.58199 0.418945 6.01738C0.418945 4.45277 1.03661 2.95142 2.13763 1.83978C3.23865 0.728131 4.734 0.0960802 6.29854 0.0810547L13.9794 0.0810547C15.5439 0.0960802 17.0392 0.728131 18.1403 1.83978C19.2413 2.95142 19.8589 4.45277 19.8589 6.01738C19.8589 7.58199 19.2413 9.08334 18.1403 10.195C17.0392 11.3066 15.5439 11.9387 13.9794 11.9537ZM6.29854 3.92475C5.74355 3.92475 5.21129 4.14522 4.81885 4.53766C4.42641 4.93009 4.20594 5.46235 4.20594 6.01734C4.20594 6.57233 4.42641 7.10459 4.81885 7.49703C5.21129 7.88947 5.74355 8.10994 6.29854 8.10994H13.9794C14.5343 8.10994 15.0666 7.88947 15.459 7.49703C15.8515 7.10459 16.0719 6.57233 16.0719 6.01734C16.0719 5.46235 15.8515 4.93009 15.459 4.53766C15.0666 4.14522 14.5343 3.92475 13.9794 3.92475H6.29854Z" fill="#8C8C8E"/>
</svg>
