<svg width="21" height="18" viewBox="0 0 21 18" fill="none" xmlns="http://www.w3.org/2000/svg">
<path d="M15.7737 8.19114C15.4777 8.10189 15.2749 8.04218 15.4305 7.65371C15.6054 7.33327 15.6976 6.97422 15.6986 6.60914C15.6996 6.24406 15.6095 5.8845 15.4364 5.56307C14.7552 4.58862 12.8897 4.64439 10.7524 5.53682C10.7524 5.53682 10.0812 5.8308 10.2524 5.29796C10.5805 4.24083 10.532 3.35562 10.0201 2.84445C8.85866 1.68363 5.77453 2.88775 3.13071 5.53157C1.15031 7.51328 0 9.61246 0 11.4282C0 14.9007 4.45295 17.0117 8.80944 17.0117C14.5184 17.0117 18.3184 13.694 18.3184 11.0594C18.3184 9.46744 16.9778 8.56451 15.7737 8.19114ZM8.81797 15.7669C5.34013 16.1095 2.34131 14.5385 2.11558 12.2563C1.88985 9.97402 4.52513 7.84663 8.00166 7.50279C11.4782 7.15894 14.479 8.72987 14.7041 11.0115C14.9291 13.2931 12.2945 15.4231 8.81797 15.7669Z" fill="#8E8D94"/>
<path d="M19.5658 1.83696C18.9122 1.11167 18.079 0.571383 17.1502 0.270489C16.2213 -0.0304049 15.2296 -0.0812837 14.2749 0.122975C14.066 0.167528 13.8834 0.293218 13.7673 0.472394C13.6511 0.651571 13.6109 0.869557 13.6554 1.0784C13.7 1.28724 13.8257 1.46983 14.0048 1.586C14.184 1.70217 14.402 1.7424 14.6108 1.69785C15.2895 1.55252 15.9944 1.58844 16.6547 1.80201C17.315 2.01558 17.9075 2.39926 18.3725 2.91446C18.8375 3.42966 19.1586 4.05823 19.3036 4.73693C19.4485 5.41562 19.4122 6.12053 19.1983 6.78075C19.1375 6.98228 19.1582 7.19961 19.2558 7.38611C19.3534 7.57261 19.5202 7.71342 19.7204 7.77834C19.9207 7.84325 20.1384 7.8271 20.3269 7.73334C20.5153 7.63959 20.6595 7.4757 20.7286 7.27683C21.0301 6.34786 21.0813 5.35581 20.877 4.40074C20.6727 3.44567 20.2202 2.56134 19.5651 1.83696" fill="#8E8D94"/>
<path d="M17.4477 3.74761C17.1293 3.39459 16.7234 3.13173 16.271 2.98554C15.8186 2.83935 15.3357 2.81498 14.8709 2.9149C14.781 2.93201 14.6954 2.96679 14.619 3.01722C14.5427 3.06764 14.4771 3.13271 14.4261 3.20866C14.3751 3.28461 14.3396 3.36993 14.3218 3.45967C14.304 3.54941 14.3042 3.6418 14.3223 3.73148C14.3405 3.82115 14.3762 3.90634 14.4275 3.9821C14.4788 4.05786 14.5446 4.12269 14.6212 4.17283C14.6977 4.22298 14.7834 4.25744 14.8734 4.27422C14.9633 4.291 15.0557 4.28977 15.1451 4.2706H15.1596C15.3867 4.22179 15.6227 4.23367 15.8438 4.30507C16.0648 4.37646 16.2632 4.50484 16.4189 4.67728C16.5745 4.84972 16.682 5.06014 16.7305 5.28733C16.779 5.51453 16.7668 5.75049 16.6951 5.97146C16.6369 6.1455 16.6502 6.33553 16.7321 6.49975C16.814 6.66398 16.9577 6.78894 17.1318 6.84716C17.3058 6.90537 17.4958 6.89207 17.6601 6.81017C17.8243 6.72827 17.9493 6.58449 18.0075 6.41046L18.0114 6.39733C18.1587 5.94511 18.184 5.46204 18.0848 4.9969C17.9856 4.53176 17.7654 4.10105 17.4464 3.74827" fill="#8E8D94"/>
<path d="M9.16886 9.25885C8.35667 9.05456 7.49965 9.12546 6.73207 9.46044C5.9645 9.79542 5.32972 10.3756 4.9272 11.11C4.75065 11.454 4.65369 11.8332 4.64348 12.2197C4.63327 12.6062 4.71007 12.9901 4.86821 13.3429C5.02634 13.6957 5.26177 14.0085 5.55708 14.258C5.85238 14.5076 6.20001 14.6876 6.57426 14.7847C7.42538 15.052 8.34393 15.0073 9.16507 14.6586C9.98621 14.3098 10.6562 13.6799 11.0548 12.8817C11.2181 12.5235 11.2976 12.1327 11.2873 11.7392C11.277 11.3456 11.1772 10.9595 10.9954 10.6103C10.8136 10.2611 10.5547 9.95787 10.2382 9.7237C9.92167 9.48953 9.55598 9.33056 9.16886 9.25885ZM7.90568 13.0582C7.74231 13.3185 7.4931 13.5134 7.20119 13.6092C6.90927 13.7051 6.59302 13.6959 6.30718 13.5832C6.18202 13.5261 6.07123 13.4417 5.98294 13.3361C5.89464 13.2306 5.83108 13.1067 5.79691 12.9734C5.76275 12.8401 5.75884 12.7009 5.78548 12.5659C5.81212 12.431 5.86863 12.3037 5.95087 12.1934C6.11356 11.941 6.35729 11.7516 6.64197 11.6562C6.92664 11.5608 7.23531 11.5651 7.51721 11.6684C7.64449 11.7229 7.75792 11.8053 7.84915 11.9095C7.94038 12.0136 8.00709 12.1369 8.04436 12.2703C8.08164 12.4036 8.08853 12.5436 8.06453 12.68C8.04052 12.8164 7.98624 12.9456 7.90568 13.0582ZM9.01268 11.6363C8.95384 11.7373 8.86163 11.8146 8.75193 11.8549C8.64222 11.8953 8.52188 11.8962 8.41161 11.8574C8.36308 11.8374 8.31967 11.8067 8.28457 11.7677C8.24947 11.7286 8.22356 11.6822 8.20877 11.6318C8.19397 11.5815 8.19066 11.5284 8.19908 11.4766C8.20749 11.4248 8.22742 11.3755 8.2574 11.3324C8.31478 11.2339 8.40444 11.1582 8.51122 11.1181C8.618 11.078 8.73534 11.0761 8.84338 11.1126C8.89256 11.1311 8.93693 11.1605 8.97323 11.1985C9.00953 11.2365 9.03681 11.2821 9.05307 11.3321C9.06933 11.3821 9.07414 11.4351 9.06715 11.4871C9.06016 11.5392 9.04154 11.5891 9.01268 11.633V11.6363Z" fill="#8E8D94"/>
</svg>
