<svg width="16" height="16" viewBox="0 0 16 16" fill="none" xmlns="http://www.w3.org/2000/svg">
<path d="M7.91462 6.80059C10.1749 8.51917 14.0046 12.7406 12.8461 13.9363C11.4799 15.1287 9.72799 15.7856 7.91465 15.7856C6.10131 15.7856 4.34937 15.1287 2.98315 13.9363C1.80631 12.7408 5.65436 8.51917 7.89596 6.81925C7.89587 6.81678 7.89629 6.81431 7.89719 6.812C7.8981 6.8097 7.89947 6.8076 7.90122 6.80585C7.90297 6.8041 7.90506 6.80273 7.90737 6.80182C7.90968 6.80092 7.91214 6.8005 7.91462 6.80059V6.80059ZM11.8188 1.88779C10.6793 1.19658 9.4277 0.785645 7.91462 0.785645C6.40154 0.785645 5.15 1.19658 4.01053 1.88779C3.99187 1.88779 3.99187 1.90645 3.99187 1.92511C3.99187 1.94377 4.01053 1.94383 4.02919 1.94383C5.48624 1.62625 7.69046 2.87779 7.89596 3.00859H7.93334C8.13878 2.87779 10.3431 1.62625 11.8 1.94365C11.8187 1.94365 11.8374 1.94365 11.8374 1.92493C11.8374 1.90621 11.8374 1.88761 11.8187 1.88761L11.8188 1.88779ZM2.66557 2.93365C2.64691 2.93365 2.64691 2.95237 2.62819 2.95237C1.34189 4.23689 0.564895 5.94419 0.441241 7.75783C0.317586 9.57147 0.855655 11.3684 1.95571 12.8157C1.95571 12.8343 1.97443 12.8343 1.99309 12.8343C2.01175 12.8343 2.01175 12.8157 1.99309 12.797C1.41397 11.0223 4.34678 6.74455 5.85998 4.95127L5.87864 4.93261C5.87864 4.91389 5.87864 4.91389 5.85998 4.91389C3.56197 2.63497 2.79631 2.87779 2.66557 2.93365ZM9.96944 4.89505L9.95078 4.91371C9.95072 4.91618 9.95117 4.91863 9.95208 4.92093C9.953 4.92322 9.95437 4.9253 9.95612 4.92705C9.95786 4.9288 9.95994 4.93018 9.96223 4.9311C9.96452 4.93203 9.96697 4.93248 9.96944 4.93243C11.4825 6.72565 14.3966 11.0037 13.8362 12.7782V12.8155C13.8549 12.8155 13.8735 12.8155 13.8735 12.7969C14.9763 11.3495 15.5143 9.55013 15.3871 7.73499C15.2599 5.91985 14.4762 4.2131 13.1824 2.93365C13.1637 2.91499 13.1637 2.91499 13.145 2.91499C13.0329 2.87761 12.2671 2.63479 9.96944 4.89499V4.89505Z" fill="#8C8C8E"/>
</svg>
