<svg width="23" height="17" viewBox="0 0 23 17" fill="none" xmlns="http://www.w3.org/2000/svg">
<path d="M22.5194 2.51394C22.3884 2.02654 22.1316 1.58213 21.7748 1.22525C21.4179 0.868372 20.9735 0.611562 20.4861 0.480559C18.6955 0 11.5 0 11.5 0C11.5 0 4.30768 0 2.51394 0.480559C2.02654 0.611562 1.58213 0.868372 1.22525 1.22525C0.868372 1.58213 0.611562 2.02654 0.480559 2.51394C0 4.30768 0 8.05 0 8.05C0 8.05 0 11.7923 0.480559 13.5873C0.61174 14.0747 0.868609 14.519 1.22546 14.8758C1.58231 15.2327 2.02662 15.4895 2.51394 15.6207C4.30768 16.1013 11.5 16.1013 11.5 16.1013C11.5 16.1013 18.6955 16.1013 20.4861 15.6207C20.9734 15.4895 21.4177 15.2327 21.7745 14.8758C22.1314 14.519 22.3883 14.0747 22.5194 13.5873C23 11.7936 23 8.05128 23 8.05128C23 8.05128 23 4.30768 22.5194 2.51394ZM9.2 11.5V4.6L15.1749 8.05L9.2 11.5Z" fill="#8E8D94"/>
</svg>
